<svg width="487" height="136" viewBox="0 0 487 136" fill="none" xmlns="http://www.w3.org/2000/svg">
<rect x="70" y="9" width="112" height="112" rx="17" fill="#F96334"/>
<rect x="79" y="18" width="17" height="17" rx="6" fill="white"/>
<rect x="79" y="44" width="17" height="17" rx="6" fill="white"/>
<rect x="79" y="70" width="17" height="17" rx="6" fill="white"/>
<rect x="79" y="96" width="17" height="17" rx="6" fill="white"/>
<rect x="157" y="18" width="17" height="17" rx="6" fill="white"/>
<rect x="157" y="44" width="17" height="17" rx="6" fill="white"/>
<rect x="157" y="70" width="17" height="17" rx="6" fill="white"/>
<rect x="157" y="96" width="17" height="17" rx="6" fill="white"/>
<path d="M229.115 60.6364H219.702C219.635 59.8575 219.457 59.1509 219.168 58.5167C218.889 57.8825 218.5 57.3372 217.999 56.881C217.51 56.4137 216.914 56.0576 216.213 55.8129C215.512 55.5569 214.717 55.429 213.827 55.429C212.269 55.429 210.95 55.8073 209.871 56.5639C208.803 57.3205 207.991 58.4054 207.434 59.8185C206.889 61.2317 206.616 62.9285 206.616 64.9091C206.616 67.0009 206.895 68.7534 207.451 70.1665C208.018 71.5685 208.836 72.6256 209.904 73.3377C210.973 74.0387 212.258 74.3892 213.76 74.3892C214.617 74.3892 215.384 74.2835 216.063 74.0721C216.742 73.8496 217.332 73.5324 217.832 73.1207C218.333 72.709 218.739 72.2139 219.051 71.6353C219.373 71.0456 219.59 70.3835 219.702 69.6491L229.115 69.7159C229.004 71.1624 228.598 72.6367 227.897 74.1388C227.196 75.6299 226.2 77.0096 224.909 78.2781C223.629 79.5354 222.044 80.5479 220.152 81.3157C218.261 82.0835 216.063 82.4673 213.56 82.4673C210.422 82.4673 207.607 81.7942 205.114 80.4478C202.633 79.1014 200.669 77.1209 199.223 74.506C197.787 71.8912 197.07 68.6922 197.07 64.9091C197.07 61.1037 197.804 57.8991 199.273 55.2955C200.741 52.6806 202.722 50.7056 205.214 49.3704C207.707 48.024 210.489 47.3509 213.56 47.3509C215.718 47.3509 217.704 47.6457 219.518 48.2354C221.332 48.8252 222.923 49.6875 224.292 50.8224C225.66 51.9463 226.762 53.3316 227.596 54.9783C228.431 56.6251 228.937 58.5111 229.115 60.6364ZM255.523 59.1009C255.379 58.5111 255.151 57.9937 254.839 57.5486C254.527 57.0924 254.138 56.7086 253.671 56.397C253.215 56.0743 252.68 55.8351 252.068 55.6793C251.468 55.5124 250.806 55.429 250.082 55.429C248.525 55.429 247.195 55.8017 246.093 56.5472C245.003 57.2927 244.168 58.3665 243.59 59.7685C243.022 61.1705 242.739 62.8617 242.739 64.8423C242.739 66.8452 243.011 68.5587 243.556 69.983C244.102 71.4072 244.914 72.4976 245.993 73.2543C247.072 74.0109 248.413 74.3892 250.016 74.3892C251.429 74.3892 252.603 74.1834 253.537 73.7717C254.483 73.36 255.19 72.7758 255.657 72.0192C256.124 71.2625 256.358 70.3724 256.358 69.3487L257.96 69.5156H250.149V62.9062H265.304V67.6463C265.304 70.7618 264.642 73.4267 263.318 75.641C262.005 77.8441 260.191 79.5354 257.877 80.7148C255.573 81.8832 252.931 82.4673 249.949 82.4673C246.622 82.4673 243.701 81.7608 241.186 80.3477C238.672 78.9345 236.708 76.9206 235.295 74.3058C233.893 71.6909 233.192 68.581 233.192 64.9759C233.192 62.1496 233.62 59.6461 234.477 57.4652C235.345 55.2843 236.546 53.4428 238.082 51.9407C239.617 50.4274 241.392 49.2869 243.406 48.5192C245.42 47.7403 247.579 47.3509 249.882 47.3509C251.907 47.3509 253.788 47.6402 255.523 48.2188C257.27 48.7862 258.811 49.5985 260.147 50.6555C261.493 51.7015 262.578 52.9421 263.401 54.3775C264.225 55.8129 264.725 57.3873 264.903 59.1009H255.523ZM277.922 47.8182L284.932 71.919H285.199L292.209 47.8182H302.69L291.408 82H278.723L267.44 47.8182H277.922Z" fill="#F96334"/>
<path d="M303.846 82L309.521 47.8182H333.555L332.286 55.2955H317.532L316.597 61.1705H329.883L328.615 68.6477H315.329L313.126 82H303.846ZM337.953 82.4006C336.328 82.4006 334.932 82.1335 333.763 81.5994C332.606 81.0542 331.761 80.2308 331.227 79.1293C330.704 78.0166 330.587 76.6146 330.876 74.9233C331.11 73.5213 331.549 72.3252 332.195 71.3349C332.84 70.3446 333.641 69.5323 334.598 68.8981C335.555 68.2638 336.629 67.7798 337.819 67.446C339.021 67.1011 340.289 66.8786 341.625 66.7784C343.071 66.6671 344.245 66.5281 345.146 66.3611C346.048 66.1942 346.721 65.9661 347.166 65.6768C347.611 65.3875 347.878 64.9981 347.967 64.5085V64.4418C348.067 63.7741 347.889 63.2623 347.433 62.9062C346.988 62.5502 346.365 62.3722 345.564 62.3722C344.696 62.3722 343.945 62.5613 343.31 62.9396C342.687 63.3179 342.259 63.9077 342.025 64.7088H333.547C333.903 63.151 334.631 61.7157 335.733 60.4027C336.846 59.0786 338.32 58.0215 340.156 57.2315C342.003 56.4304 344.206 56.0298 346.765 56.0298C348.59 56.0298 350.192 56.2468 351.572 56.6808C352.952 57.1036 354.092 57.6989 354.994 58.4666C355.906 59.2232 356.546 60.1134 356.913 61.1371C357.291 62.1496 357.38 63.2512 357.18 64.4418L354.243 82H345.63L346.231 78.3949H346.031C345.363 79.3518 344.612 80.1251 343.778 80.7148C342.954 81.3046 342.053 81.733 341.074 82C340.106 82.267 339.065 82.4006 337.953 82.4006ZM341.958 76.5923C342.648 76.5923 343.327 76.4477 343.995 76.1584C344.662 75.8691 345.235 75.4518 345.714 74.9066C346.192 74.3614 346.498 73.6993 346.632 72.9205L346.966 70.7841C346.721 70.8842 346.448 70.9788 346.148 71.0678C345.858 71.1457 345.552 71.2236 345.23 71.3015C344.918 71.3794 344.584 71.4517 344.228 71.5185C343.883 71.5852 343.527 71.652 343.16 71.7188C342.426 71.83 341.808 72.0136 341.308 72.2695C340.807 72.5143 340.417 72.8203 340.139 73.1875C339.861 73.5436 339.689 73.9441 339.622 74.3892C339.522 75.0902 339.683 75.6354 340.106 76.0249C340.54 76.4032 341.157 76.5923 341.958 76.5923ZM367.924 75.9247L369.794 64.9759H370.995L378.673 56.3636H389.021L376.403 69.7827H373.799L367.924 75.9247ZM358.645 82L364.319 47.8182H373.532L367.858 82H358.645ZM374.467 82L370.261 71.8523L377.405 65.3097L385.015 82H374.467ZM398.309 82.4673C395.572 82.4673 393.302 81.9444 391.5 80.8984C389.697 79.8414 388.429 78.3281 387.694 76.3587C386.96 74.3781 386.826 72.008 387.294 69.2486C387.739 66.6004 388.657 64.286 390.047 62.3054C391.449 60.3248 393.213 58.7837 395.338 57.6822C397.475 56.5806 399.867 56.0298 402.515 56.0298C404.451 56.0298 406.148 56.3303 407.606 56.9311C409.074 57.532 410.271 58.4054 411.194 59.5515C412.118 60.6976 412.741 62.0829 413.063 63.7074C413.397 65.3208 413.397 67.1456 413.063 69.1818L412.73 71.3182H389.831L390.632 66.2443H405.052C405.163 65.5099 405.091 64.8646 404.835 64.3082C404.59 63.7408 404.195 63.3013 403.65 62.9897C403.116 62.667 402.471 62.5057 401.714 62.5057C400.957 62.5057 400.245 62.667 399.578 62.9897C398.921 63.3124 398.359 63.763 397.892 64.3416C397.436 64.9202 397.13 65.599 396.974 66.3778L395.973 71.7188C395.839 72.5421 395.889 73.2765 396.123 73.9219C396.356 74.5672 396.763 75.0735 397.341 75.4407C397.92 75.8079 398.665 75.9915 399.578 75.9915C400.201 75.9915 400.791 75.908 401.347 75.7411C401.914 75.5631 402.415 75.3072 402.849 74.9734C403.294 74.6284 403.65 74.2112 403.917 73.7216H412.329C411.728 75.5019 410.777 77.0485 409.475 78.3615C408.184 79.6634 406.593 80.6759 404.702 81.3991C402.821 82.1113 400.69 82.4673 398.309 82.4673Z" fill="black"/>
</svg>
